<svg id="Layer_1" data-name="Layer 1" xmlns="http://www.w3.org/2000/svg" viewBox="0 0 109 20"><title>credo-logo</title><path fill="#FFFFFF" d="M39.83,7.69A7.25,7.25,0,0,0,32.65.39H24.09V19.61h3.81V15h3.87l3.88,4.63h5L36,14.13A7.33,7.33,0,0,0,39.83,7.69ZM27.89,4.19h4.76A3.43,3.43,0,0,1,36,7.69a3.43,3.43,0,0,1-3.36,3.49H27.89ZM98.7,0A9.92,9.92,0,0,0,88.9,10a9.81,9.81,0,1,0,19.61,0A9.92,9.92,0,0,0,98.7,0Zm0,16.19a6.1,6.1,0,0,1-6-6.19,6,6,0,1,1,12,0A6.1,6.1,0,0,1,98.7,16.19ZM47,.39H59.47V4.19h-8.7V8.1h7.62V11.9H50.78v3.9h8.7v3.81H47ZM4.3,10a6.1,6.1,0,0,0,6,6.19,6,6,0,0,0,5.22-3.14l3.33,1.84A9.8,9.8,0,0,1,10.3,20,9.92,9.92,0,0,1,.49,10,9.92,9.92,0,0,1,10.3,0a9.8,9.8,0,0,1,8.55,5.1L15.51,6.94A6,6,0,0,0,10.3,3.81,6.1,6.1,0,0,0,4.3,10ZM74.23.39H66.61V19.61h7.62A9.53,9.53,0,0,0,83.66,10,9.53,9.53,0,0,0,74.23.39Zm0,15.42H70.42V4.19h3.81A5.72,5.72,0,0,1,79.85,10,5.72,5.72,0,0,1,74.23,15.81Z"/></svg>
