<?xml version="1.0" encoding="utf-8"?>
<!-- Generator: Adobe Illustrator 21.1.0, SVG Export Plug-In . SVG Version: 6.00 Build 0)  -->
<svg version="1.1" id="Layer_1" xmlns="http://www.w3.org/2000/svg" xmlns:xlink="http://www.w3.org/1999/xlink" x="0px" y="0px"
	 viewBox="0 0 109 20" style="enable-background:new 0 0 109 20;" xml:space="preserve">
<style type="text/css">
	.st0{fill:none;}
</style>
<title>credo-logo</title>
<g>
	<path class="st0" d="M10.5,0C5,0,0.5,4.5,0.5,10s4.5,10,10,10s10-4.5,10-10S16,0,10.5,0z M10.5,16.2c-3.4,0-6.2-2.8-6.2-6.2
		c0-3.4,2.8-6.2,6.2-6.2s6.2,2.8,6.2,6.2C16.6,13.4,13.9,16.2,10.5,16.2z"/>
	<path d="M15.7,13.2c-1.1,1.8-3,3-5.3,3c-3.4,0-6.2-2.8-6.2-6.2c0-3.4,2.8-6.2,6.2-6.2c2.2,0,4.2,1.2,5.3,3L19.1,5
		C17.3,2,14.1,0,10.5,0C5,0,0.5,4.5,0.5,10s4.5,10,10,10c3.7,0,6.9-2,8.6-4.9L15.7,13.2z"/>
	<path d="M40,7.7c0-4-3.2-7.3-7.2-7.3h-8.5v19.2h3.8V15H32l3.9,4.6h5l-4.6-5.5C38.5,12.9,40,10.5,40,7.7z M32.8,11.2h-4.7v-7h4.7
		c1.9,0,3.4,1.6,3.4,3.5C36.2,9.6,34.7,11.2,32.8,11.2z"/>
	<path d="M98.7,0c-5.4,0-9.8,4.5-9.8,10s4.4,10,9.8,10c5.4,0,9.8-4.5,9.8-10S104.1,0,98.7,0z M98.7,16.2c-3.3,0-6-2.8-6-6.2
		s2.7-6.2,6-6.2c3.3,0,6,2.8,6,6.2S102,16.2,98.7,16.2z"/>
	<path d="M74.3,0.4h-7.6v19.2h7.6c5.2,0,9.4-4.3,9.4-9.6S79.5,0.4,74.3,0.4z M74.3,15.8h-3.8V4.2h3.8c3.1,0,5.6,2.6,5.6,5.8
		S77.4,15.8,74.3,15.8z"/>
	<polygon points="47.1,19.6 59.6,19.6 59.6,15.8 50.9,15.8 50.9,11.9 58.5,11.9 58.5,8.1 50.9,8.1 50.9,4.2 59.6,4.2 59.6,0.4 
		47.1,0.4 	"/>
</g>
</svg>
