<?xml version="1.0" encoding="utf-8"?>
<!-- Generator: Adobe Illustrator 21.1.0, SVG Export Plug-In . SVG Version: 6.00 Build 0)  -->
<svg version="1.1" id="Layer_1" xmlns="http://www.w3.org/2000/svg" xmlns:xlink="http://www.w3.org/1999/xlink" x="0px" y="0px"
	 viewBox="0 0 89.3 20" style="enable-background:new 0 0 89.3 20;" xml:space="preserve">
<path d="M16.3,14.1c2.4-1.3,3.8-3.8,3.8-6.4c0-4-3.2-7.3-7.2-7.3H4.4v19.2h3.8V15h3.9l3.9,4.6h5L16.3,14.1z M13,11.2H8.2v-7H13
	c1.9,0,3.4,1.6,3.3,3.5C16.4,9.6,14.9,11.1,13,11.2z"/>
<path d="M79,0c-5.5,0.1-9.8,4.5-9.8,10c-0.2,5.4,4.1,9.9,9.5,10.1c5.4,0.2,9.9-4.1,10.1-9.5c0-0.2,0-0.4,0-0.6
	C88.9,4.5,84.5,0.1,79,0z M79,16.2c-3.4-0.1-6.1-2.8-6-6.2c0-3.3,2.7-6,6-6s6,2.7,6,6C85.1,13.4,82.4,16.1,79,16.2z"/>
<polygon points="27.3,0.4 39.8,0.4 39.8,4.2 31.1,4.2 31.1,8.1 38.7,8.1 38.7,11.9 31.1,11.9 31.1,15.8 39.8,15.8 39.8,19.6 
	27.3,19.6 "/>
<path d="M54.6,0.4h-7.6v19.2h7.6c5.3-0.1,9.5-4.4,9.4-9.6C64,4.7,59.8,0.4,54.6,0.4z M54.6,15.8h-3.8V4.2h3.8
	c3.2,0.1,5.7,2.7,5.6,5.8C60.2,13.2,57.7,15.8,54.6,15.8z"/>
</svg>
